<svg xmlns="http://www.w3.org/2000/svg" xmlns:xlink="http://www.w3.org/1999/xlink" width="500" zoomAndPan="magnify" viewBox="0 0 375 374.999991" height="500" preserveAspectRatio="xMidYMid meet" version="1.0"><defs><g/><clipPath id="daa13f9f79"><path d="M 166 142 L 218 142 L 218 185 L 166 185 Z M 166 142 " clip-rule="nonzero"/></clipPath><clipPath id="c0f6017e8e"><path d="M 164.167969 155.039062 L 210.191406 129.777344 L 234.007812 173.171875 L 187.984375 198.429688 Z M 164.167969 155.039062 " clip-rule="nonzero"/></clipPath><clipPath id="9d497c4127"><path d="M 164.167969 155.039062 L 210.191406 129.777344 L 234.007812 173.171875 L 187.984375 198.429688 Z M 164.167969 155.039062 " clip-rule="nonzero"/></clipPath><clipPath id="2ec9077947"><path d="M 166 131 L 218 131 L 218 185 L 166 185 Z M 166 131 " clip-rule="nonzero"/></clipPath><clipPath id="450f61cd2b"><path d="M 164.167969 155.039062 L 210.191406 129.777344 L 234.007812 173.171875 L 187.984375 198.429688 Z M 164.167969 155.039062 " clip-rule="nonzero"/></clipPath><clipPath id="aab4d7b43e"><path d="M 164.167969 155.039062 L 210.191406 129.777344 L 234.007812 173.171875 L 187.984375 198.429688 Z M 164.167969 155.039062 " clip-rule="nonzero"/></clipPath><clipPath id="d3807f1006"><path d="M 178 163 L 194 163 L 194 180 L 178 180 Z M 178 163 " clip-rule="nonzero"/></clipPath><clipPath id="67b628021d"><path d="M 164.167969 155.039062 L 210.191406 129.777344 L 234.007812 173.171875 L 187.984375 198.429688 Z M 164.167969 155.039062 " clip-rule="nonzero"/></clipPath><clipPath id="6c97bcc680"><path d="M 164.167969 155.039062 L 210.191406 129.777344 L 234.007812 173.171875 L 187.984375 198.429688 Z M 164.167969 155.039062 " clip-rule="nonzero"/></clipPath><clipPath id="ba2a1f66fc"><path d="M 179 147 L 222 147 L 222 190 L 179 190 Z M 179 147 " clip-rule="nonzero"/></clipPath><clipPath id="13a9acbcf8"><path d="M 164.167969 155.039062 L 210.191406 129.777344 L 234.007812 173.171875 L 187.984375 198.429688 Z M 164.167969 155.039062 " clip-rule="nonzero"/></clipPath><clipPath id="c17bad918b"><path d="M 164.167969 155.039062 L 210.191406 129.777344 L 234.007812 173.171875 L 187.984375 198.429688 Z M 164.167969 155.039062 " clip-rule="nonzero"/></clipPath><clipPath id="7196966992"><path d="M 180 151 L 215 151 L 215 178 L 180 178 Z M 180 151 " clip-rule="nonzero"/></clipPath><clipPath id="d39b42423d"><path d="M 164.167969 155.039062 L 210.191406 129.777344 L 234.007812 173.171875 L 187.984375 198.429688 Z M 164.167969 155.039062 " clip-rule="nonzero"/></clipPath><clipPath id="137bdd9422"><path d="M 164.167969 155.039062 L 210.191406 129.777344 L 234.007812 173.171875 L 187.984375 198.429688 Z M 164.167969 155.039062 " clip-rule="nonzero"/></clipPath><clipPath id="40bd65ecc4"><path d="M 178 142 L 218 142 L 218 172 L 178 172 Z M 178 142 " clip-rule="nonzero"/></clipPath><clipPath id="2ccba22f02"><path d="M 164.167969 155.039062 L 210.191406 129.777344 L 234.007812 173.171875 L 187.984375 198.429688 Z M 164.167969 155.039062 " clip-rule="nonzero"/></clipPath><clipPath id="9ed11923ea"><path d="M 164.167969 155.039062 L 210.191406 129.777344 L 234.007812 173.171875 L 187.984375 198.429688 Z M 164.167969 155.039062 " clip-rule="nonzero"/></clipPath></defs><g fill="#ff9900" fill-opacity="1"><g transform="translate(10.135683, 189.055593)"><g><path d="M 31.03125 -24.375 L 31.03125 0 L 23.421875 0 L 23.421875 -12.15625 L 19.65625 0 L 13.125 0 L 9.359375 -12.15625 L 9.359375 0 L 1.71875 0 L 1.71875 -24.375 L 11.09375 -24.375 L 16.46875 -9.75 L 21.703125 -24.375 Z M 31.03125 -24.375 "/></g></g></g><g fill="#ff9900" fill-opacity="1"><g transform="translate(42.87835, 189.055593)"><g><path d="M 20.53125 -9.890625 C 20.53125 -9.359375 20.492188 -8.851562 20.421875 -8.375 L 8.125 -8.375 C 8.238281 -6.695312 8.941406 -5.859375 10.234375 -5.859375 C 11.054688 -5.859375 11.648438 -6.234375 12.015625 -6.984375 L 20.109375 -6.984375 C 19.835938 -5.609375 19.257812 -4.375 18.375 -3.28125 C 17.488281 -2.195312 16.375 -1.335938 15.03125 -0.703125 C 13.6875 -0.078125 12.210938 0.234375 10.609375 0.234375 C 8.679688 0.234375 6.960938 -0.164062 5.453125 -0.96875 C 3.953125 -1.769531 2.78125 -2.921875 1.9375 -4.421875 C 1.101562 -5.929688 0.6875 -7.695312 0.6875 -9.71875 C 0.6875 -11.726562 1.101562 -13.484375 1.9375 -14.984375 C 2.78125 -16.492188 3.953125 -17.648438 5.453125 -18.453125 C 6.960938 -19.253906 8.679688 -19.65625 10.609375 -19.65625 C 12.535156 -19.65625 14.25 -19.257812 15.75 -18.46875 C 17.257812 -17.675781 18.429688 -16.546875 19.265625 -15.078125 C 20.109375 -13.609375 20.53125 -11.878906 20.53125 -9.890625 Z M 12.78125 -11.703125 C 12.78125 -12.347656 12.570312 -12.835938 12.15625 -13.171875 C 11.738281 -13.503906 11.222656 -13.671875 10.609375 -13.671875 C 9.253906 -13.671875 8.460938 -13.015625 8.234375 -11.703125 Z M 12.78125 -11.703125 "/></g></g></g><g fill="#ff9900" fill-opacity="1"><g transform="translate(64.087066, 189.055593)"><g><path d="M 9.359375 -15.84375 C 10.140625 -16.96875 11.09375 -17.867188 12.21875 -18.546875 C 13.34375 -19.222656 14.515625 -19.5625 15.734375 -19.5625 L 15.734375 -11.40625 L 13.5625 -11.40625 C 12.125 -11.40625 11.0625 -11.148438 10.375 -10.640625 C 9.695312 -10.140625 9.359375 -9.242188 9.359375 -7.953125 L 9.359375 0 L 1.71875 0 L 1.71875 -19.421875 L 9.359375 -19.421875 Z M 9.359375 -15.84375 "/></g></g></g><g fill="#ff9900" fill-opacity="1"><g transform="translate(80.165751, 189.055593)"><g><path d="M 0.6875 -9.71875 C 0.6875 -11.726562 1.101562 -13.484375 1.9375 -14.984375 C 2.78125 -16.492188 3.953125 -17.648438 5.453125 -18.453125 C 6.960938 -19.253906 8.679688 -19.65625 10.609375 -19.65625 C 13.128906 -19.65625 15.253906 -18.941406 16.984375 -17.515625 C 18.722656 -16.097656 19.820312 -14.128906 20.28125 -11.609375 L 12.1875 -11.609375 C 11.894531 -12.617188 11.3125 -13.125 10.4375 -13.125 C 9.8125 -13.125 9.320312 -12.835938 8.96875 -12.265625 C 8.613281 -11.691406 8.4375 -10.84375 8.4375 -9.71875 C 8.4375 -8.59375 8.613281 -7.738281 8.96875 -7.15625 C 9.320312 -6.582031 9.8125 -6.296875 10.4375 -6.296875 C 11.3125 -6.296875 11.894531 -6.800781 12.1875 -7.8125 L 20.28125 -7.8125 C 19.820312 -5.289062 18.722656 -3.316406 16.984375 -1.890625 C 15.253906 -0.472656 13.128906 0.234375 10.609375 0.234375 C 8.679688 0.234375 6.960938 -0.164062 5.453125 -0.96875 C 3.953125 -1.769531 2.78125 -2.921875 1.9375 -4.421875 C 1.101562 -5.929688 0.6875 -7.695312 0.6875 -9.71875 Z M 0.6875 -9.71875 "/></g></g></g><g fill="#ff9900" fill-opacity="1"><g transform="translate(101.133454, 189.055593)"><g><path d="M 0.6875 -9.71875 C 0.6875 -11.757812 1.035156 -13.53125 1.734375 -15.03125 C 2.441406 -16.53125 3.398438 -17.675781 4.609375 -18.46875 C 5.828125 -19.257812 7.195312 -19.65625 8.71875 -19.65625 C 9.976562 -19.65625 11.066406 -19.394531 11.984375 -18.875 C 12.898438 -18.363281 13.597656 -17.660156 14.078125 -16.765625 L 14.078125 -19.421875 L 21.703125 -19.421875 L 21.703125 0 L 14.078125 0 L 14.078125 -2.65625 C 13.597656 -1.757812 12.898438 -1.050781 11.984375 -0.53125 C 11.066406 -0.0195312 9.976562 0.234375 8.71875 0.234375 C 7.195312 0.234375 5.828125 -0.160156 4.609375 -0.953125 C 3.398438 -1.742188 2.441406 -2.890625 1.734375 -4.390625 C 1.035156 -5.890625 0.6875 -7.664062 0.6875 -9.71875 Z M 14.078125 -9.71875 C 14.078125 -10.75 13.8125 -11.550781 13.28125 -12.125 C 12.757812 -12.695312 12.085938 -12.984375 11.265625 -12.984375 C 10.429688 -12.984375 9.75 -12.695312 9.21875 -12.125 C 8.695312 -11.550781 8.4375 -10.75 8.4375 -9.71875 C 8.4375 -8.675781 8.695312 -7.867188 9.21875 -7.296875 C 9.75 -6.722656 10.429688 -6.4375 11.265625 -6.4375 C 12.085938 -6.4375 12.757812 -6.722656 13.28125 -7.296875 C 13.8125 -7.867188 14.078125 -8.675781 14.078125 -9.71875 Z M 14.078125 -9.71875 "/></g></g></g><g fill="#ff9900" fill-opacity="1"><g transform="translate(124.545672, 189.055593)"><g><path d="M 0.6875 -9.71875 C 0.6875 -11.757812 1.035156 -13.53125 1.734375 -15.03125 C 2.441406 -16.53125 3.398438 -17.675781 4.609375 -18.46875 C 5.828125 -19.257812 7.195312 -19.65625 8.71875 -19.65625 C 9.976562 -19.65625 11.0625 -19.394531 11.96875 -18.875 C 12.875 -18.363281 13.566406 -17.660156 14.046875 -16.765625 L 14.046875 -25.484375 L 21.703125 -25.484375 L 21.703125 0 L 14.046875 0 L 14.046875 -2.65625 C 13.566406 -1.757812 12.875 -1.050781 11.96875 -0.53125 C 11.0625 -0.0195312 9.976562 0.234375 8.71875 0.234375 C 7.195312 0.234375 5.828125 -0.160156 4.609375 -0.953125 C 3.398438 -1.742188 2.441406 -2.890625 1.734375 -4.390625 C 1.035156 -5.890625 0.6875 -7.664062 0.6875 -9.71875 Z M 14.078125 -9.71875 C 14.078125 -10.75 13.8125 -11.550781 13.28125 -12.125 C 12.757812 -12.695312 12.085938 -12.984375 11.265625 -12.984375 C 10.429688 -12.984375 9.75 -12.695312 9.21875 -12.125 C 8.695312 -11.550781 8.4375 -10.75 8.4375 -9.71875 C 8.4375 -8.675781 8.695312 -7.867188 9.21875 -7.296875 C 9.75 -6.722656 10.429688 -6.4375 11.265625 -6.4375 C 12.085938 -6.4375 12.757812 -6.722656 13.28125 -7.296875 C 13.8125 -7.867188 14.078125 -8.675781 14.078125 -9.71875 Z M 14.078125 -9.71875 "/></g></g></g><g fill="#ff9900" fill-opacity="1"><g transform="translate(147.957891, 189.055593)"><g><path d="M 10.953125 0.234375 C 9.003906 0.234375 7.25 -0.164062 5.6875 -0.96875 C 4.125 -1.769531 2.898438 -2.921875 2.015625 -4.421875 C 1.128906 -5.929688 0.6875 -7.695312 0.6875 -9.71875 C 0.6875 -11.726562 1.128906 -13.484375 2.015625 -14.984375 C 2.898438 -16.492188 4.125 -17.648438 5.6875 -18.453125 C 7.25 -19.253906 9.003906 -19.65625 10.953125 -19.65625 C 12.898438 -19.65625 14.65625 -19.253906 16.21875 -18.453125 C 17.78125 -17.648438 19.003906 -16.492188 19.890625 -14.984375 C 20.773438 -13.484375 21.21875 -11.726562 21.21875 -9.71875 C 21.21875 -7.695312 20.773438 -5.929688 19.890625 -4.421875 C 19.003906 -2.921875 17.78125 -1.769531 16.21875 -0.96875 C 14.65625 -0.164062 12.898438 0.234375 10.953125 0.234375 Z M 10.953125 -6.375 C 11.660156 -6.375 12.253906 -6.65625 12.734375 -7.21875 C 13.222656 -7.78125 13.46875 -8.613281 13.46875 -9.71875 C 13.46875 -10.8125 13.222656 -11.640625 12.734375 -12.203125 C 12.253906 -12.765625 11.660156 -13.046875 10.953125 -13.046875 C 10.242188 -13.046875 9.644531 -12.765625 9.15625 -12.203125 C 8.675781 -11.640625 8.4375 -10.8125 8.4375 -9.71875 C 8.4375 -8.613281 8.671875 -7.78125 9.140625 -7.21875 C 9.609375 -6.65625 10.210938 -6.375 10.953125 -6.375 Z M 10.953125 -6.375 "/></g></g></g><g fill="#ff9900" fill-opacity="1"><g transform="translate(228.011343, 189.719152)"><g><path d="M 13.578125 0.234375 C 11.285156 0.234375 9.179688 -0.300781 7.265625 -1.375 C 5.359375 -2.445312 3.84375 -3.9375 2.71875 -5.84375 C 1.59375 -7.75 1.03125 -9.894531 1.03125 -12.28125 C 1.03125 -14.664062 1.59375 -16.804688 2.71875 -18.703125 C 3.84375 -20.609375 5.359375 -22.09375 7.265625 -23.15625 C 9.179688 -24.226562 11.285156 -24.765625 13.578125 -24.765625 C 15.867188 -24.765625 17.96875 -24.226562 19.875 -23.15625 C 21.78125 -22.09375 23.285156 -20.609375 24.390625 -18.703125 C 25.503906 -16.804688 26.0625 -14.664062 26.0625 -12.28125 C 26.0625 -9.894531 25.503906 -7.75 24.390625 -5.84375 C 23.285156 -3.9375 21.773438 -2.445312 19.859375 -1.375 C 17.941406 -0.300781 15.847656 0.234375 13.578125 0.234375 Z M 13.578125 -6.875 C 15.097656 -6.875 16.269531 -7.359375 17.09375 -8.328125 C 17.914062 -9.304688 18.328125 -10.625 18.328125 -12.28125 C 18.328125 -13.945312 17.914062 -15.269531 17.09375 -16.25 C 16.269531 -17.226562 15.097656 -17.71875 13.578125 -17.71875 C 12.046875 -17.71875 10.863281 -17.226562 10.03125 -16.25 C 9.207031 -15.269531 8.796875 -13.945312 8.796875 -12.28125 C 8.796875 -10.625 9.207031 -9.304688 10.03125 -8.328125 C 10.863281 -7.359375 12.046875 -6.875 13.578125 -6.875 Z M 13.578125 -6.875 "/></g></g></g><g fill="#ff9900" fill-opacity="1"><g transform="translate(255.114212, 189.719152)"><g><path d="M 15.296875 -19.53125 C 17.523438 -19.53125 19.265625 -18.785156 20.515625 -17.296875 C 21.765625 -15.804688 22.390625 -13.789062 22.390625 -11.25 L 22.390625 0 L 14.78125 0 L 14.78125 -10.28125 C 14.78125 -11.195312 14.535156 -11.925781 14.046875 -12.46875 C 13.554688 -13.007812 12.898438 -13.28125 12.078125 -13.28125 C 11.222656 -13.28125 10.554688 -13.007812 10.078125 -12.46875 C 9.597656 -11.925781 9.359375 -11.195312 9.359375 -10.28125 L 9.359375 0 L 1.71875 0 L 1.71875 -19.390625 L 9.359375 -19.390625 L 9.359375 -16.4375 C 9.953125 -17.351562 10.742188 -18.097656 11.734375 -18.671875 C 12.734375 -19.242188 13.921875 -19.53125 15.296875 -19.53125 Z M 15.296875 -19.53125 "/></g></g></g><g fill="#ff9900" fill-opacity="1"><g transform="translate(279.087179, 189.719152)"><g><path d="M 9.359375 -25.453125 L 9.359375 0 L 1.71875 0 L 1.71875 -25.453125 Z M 9.359375 -25.453125 "/></g></g></g><g fill="#ff9900" fill-opacity="1"><g transform="translate(290.16221, 189.719152)"><g><path d="M 5.578125 -20.9375 C 4.242188 -20.9375 3.175781 -21.289062 2.375 -22 C 1.570312 -22.71875 1.171875 -23.613281 1.171875 -24.6875 C 1.171875 -25.789062 1.570312 -26.703125 2.375 -27.421875 C 3.175781 -28.148438 4.242188 -28.515625 5.578125 -28.515625 C 6.878906 -28.515625 7.929688 -28.148438 8.734375 -27.421875 C 9.535156 -26.703125 9.9375 -25.789062 9.9375 -24.6875 C 9.9375 -23.613281 9.535156 -22.71875 8.734375 -22 C 7.929688 -21.289062 6.878906 -20.9375 5.578125 -20.9375 Z M 9.359375 -19.390625 L 9.359375 0 L 1.71875 0 L 1.71875 -19.390625 Z M 9.359375 -19.390625 "/></g></g></g><g fill="#ff9900" fill-opacity="1"><g transform="translate(301.237241, 189.719152)"><g><path d="M 15.296875 -19.53125 C 17.523438 -19.53125 19.265625 -18.785156 20.515625 -17.296875 C 21.765625 -15.804688 22.390625 -13.789062 22.390625 -11.25 L 22.390625 0 L 14.78125 0 L 14.78125 -10.28125 C 14.78125 -11.195312 14.535156 -11.925781 14.046875 -12.46875 C 13.554688 -13.007812 12.898438 -13.28125 12.078125 -13.28125 C 11.222656 -13.28125 10.554688 -13.007812 10.078125 -12.46875 C 9.597656 -11.925781 9.359375 -11.195312 9.359375 -10.28125 L 9.359375 0 L 1.71875 0 L 1.71875 -19.390625 L 9.359375 -19.390625 L 9.359375 -16.4375 C 9.953125 -17.351562 10.742188 -18.097656 11.734375 -18.671875 C 12.734375 -19.242188 13.921875 -19.53125 15.296875 -19.53125 Z M 15.296875 -19.53125 "/></g></g></g><g fill="#ff9900" fill-opacity="1"><g transform="translate(325.210208, 189.719152)"><g><path d="M 20.5 -9.875 C 20.5 -9.34375 20.460938 -8.835938 20.390625 -8.359375 L 8.109375 -8.359375 C 8.222656 -6.679688 8.925781 -5.84375 10.21875 -5.84375 C 11.039062 -5.84375 11.632812 -6.222656 12 -6.984375 L 20.078125 -6.984375 C 19.804688 -5.609375 19.226562 -4.375 18.34375 -3.28125 C 17.457031 -2.195312 16.34375 -1.335938 15 -0.703125 C 13.664062 -0.078125 12.195312 0.234375 10.59375 0.234375 C 8.664062 0.234375 6.953125 -0.164062 5.453125 -0.96875 C 3.953125 -1.769531 2.78125 -2.921875 1.9375 -4.421875 C 1.101562 -5.921875 0.6875 -7.679688 0.6875 -9.703125 C 0.6875 -11.710938 1.101562 -13.46875 1.9375 -14.96875 C 2.78125 -16.476562 3.953125 -17.632812 5.453125 -18.4375 C 6.953125 -19.238281 8.664062 -19.640625 10.59375 -19.640625 C 12.519531 -19.640625 14.234375 -19.242188 15.734375 -18.453125 C 17.234375 -17.660156 18.398438 -16.53125 19.234375 -15.0625 C 20.078125 -13.59375 20.5 -11.863281 20.5 -9.875 Z M 12.765625 -11.6875 C 12.765625 -12.332031 12.554688 -12.820312 12.140625 -13.15625 C 11.722656 -13.488281 11.207031 -13.65625 10.59375 -13.65625 C 9.238281 -13.65625 8.445312 -13 8.21875 -11.6875 Z M 12.765625 -11.6875 "/></g></g></g><g clip-path="url(#daa13f9f79)"><g clip-path="url(#c0f6017e8e)"><g clip-path="url(#9d497c4127)"><path fill="#ff9900" d="M 179.75 163.332031 L 173.449219 155.6875 L 166.054688 157.363281 L 166.453125 159.105469 L 172.78125 157.679688 L 195.210938 184.925781 L 217.515625 172.6875 L 216.652344 171.113281 L 195.644531 182.644531 L 193.027344 179.46875 L 215.378906 167.199219 L 214.984375 166.007812 L 214.996094 166 L 214.988281 165.992188 L 217.855469 164.417969 L 215.128906 156.050781 L 210.828125 142.808594 L 178.964844 160.292969 L 180.929688 162.671875 Z M 200.453125 151.96875 L 192.273438 156.457031 L 197.136719 153.789062 L 192.257812 156.46875 M 202 151.109375 L 201.472656 149.988281 L 209.777344 145.429688 L 211.371094 150.3125 L 210.109375 151.003906 L 208.917969 147.324219 L 202.023438 151.105469 M 192.25 156.460938 L 191.59375 155.410156 L 199.910156 150.847656 L 200.4375 151.964844 M 182.519531 161.800781 L 181.722656 160.828125 L 190.03125 156.269531 L 190.6875 157.316406 M 212.824219 159.367188 L 214.101562 158.664062 L 215.699219 163.558594 L 214.421875 164.257812 L 212.824219 159.367188 L 212.804688 159.375 M 212.246094 157.660156 L 212.257812 157.640625 M 210.664062 152.75 L 211.941406 152.046875 L 213.53125 156.929688 L 212.261719 157.625 L 210.664062 152.75 L 210.648438 152.769531 M 210.085938 151.042969 L 210.097656 151.023438 " fill-opacity="1" fill-rule="nonzero"/></g></g></g><g clip-path="url(#2ec9077947)"><g clip-path="url(#450f61cd2b)"><g clip-path="url(#aab4d7b43e)"><path fill="#ffc200" d="M 212.042969 133.242188 L 211.535156 135.011719 L 207.996094 133.96875 L 206.734375 138.359375 L 202.480469 137.105469 L 201.292969 141.234375 L 197.140625 140.011719 L 196.144531 143.484375 L 194.375 142.964844 L 195.882812 137.714844 L 200.035156 138.941406 L 201.222656 134.808594 L 205.476562 136.0625 L 206.738281 131.675781 Z M 178.949219 163.773438 L 179.75 163.332031 L 173.449219 155.6875 L 166.054688 157.363281 L 166.453125 159.105469 L 172.78125 157.679688 L 195.210938 184.925781 L 217.515625 172.6875 L 216.652344 171.113281 L 195.644531 182.644531 L 193.027344 179.46875 L 192.238281 179.902344 Z M 178.949219 163.773438 " fill-opacity="1" fill-rule="nonzero"/></g></g></g><g clip-path="url(#d3807f1006)"><g clip-path="url(#67b628021d)"><g clip-path="url(#6c97bcc680)"><path fill="#12baab" d="M 179.75 163.332031 L 193.027344 179.46875 L 192.238281 179.902344 L 178.949219 163.773438 Z M 179.75 163.332031 " fill-opacity="1" fill-rule="nonzero"/></g></g></g><g clip-path="url(#ba2a1f66fc)"><g clip-path="url(#13a9acbcf8)"><g clip-path="url(#c17bad918b)"><path fill="#ff9900" d="M 200.292969 169.132812 L 198.941406 166.996094 L 205.753906 163.257812 L 206.828125 165.546875 L 207.90625 167.832031 L 201.65625 171.261719 Z M 210.117188 151.011719 L 208.917969 147.324219 L 202.023438 151.105469 L 202.570312 152.277344 L 203.648438 154.5625 Z M 208.390625 164.6875 L 209.46875 166.976562 L 214.421875 164.257812 L 212.824219 159.367188 L 207.308594 162.390625 Z M 186.160156 166.210938 L 189.421875 170.175781 L 196.414062 166.335938 L 193.710938 162.0625 Z M 197.976562 165.480469 L 204.980469 161.636719 L 203.90625 159.347656 L 202.828125 157.058594 L 195.265625 161.210938 L 196.617188 163.347656 Z M 205.476562 158.484375 L 206.550781 160.773438 L 212.269531 157.636719 L 210.675781 152.753906 L 204.398438 156.199219 Z M 192.746094 160.546875 L 191.394531 158.410156 L 190.703125 157.320312 L 182.523438 161.808594 L 184.992188 164.804688 Z M 208.671875 169.472656 L 202.625 172.789062 L 201.0625 173.648438 L 193.4375 177.835938 L 187.832031 171.046875 L 183.402344 165.675781 L 180.933594 162.683594 L 179.75 163.332031 L 193.027344 179.46875 L 215.378906 167.199219 L 214.984375 166.007812 L 210.226562 168.621094 Z M 190.582031 171.585938 L 193.847656 175.558594 L 200.078125 172.140625 L 197.375 167.867188 L 190.585938 171.59375 Z M 202.074219 155.425781 L 201 153.140625 L 200.453125 151.96875 L 192.273438 156.457031 L 192.96875 157.546875 L 194.320312 159.683594 Z M 205.695312 184.570312 C 206.660156 186.328125 206.027344 188.53125 204.28125 189.488281 C 202.535156 190.445312 200.335938 189.796875 199.371094 188.039062 C 198.40625 186.28125 199.039062 184.078125 200.785156 183.121094 C 202.523438 182.167969 204.730469 182.8125 205.695312 184.570312 Z M 204.132812 185.425781 C 203.644531 184.539062 202.53125 184.210938 201.648438 184.695312 C 200.765625 185.179688 200.445312 186.292969 200.933594 187.183594 C 201.421875 188.070312 202.535156 188.398438 203.417969 187.914062 C 204.292969 187.421875 204.621094 186.316406 204.132812 185.425781 Z M 220.570312 176.402344 C 221.535156 178.160156 220.902344 180.363281 219.15625 181.320312 C 217.410156 182.28125 215.214844 181.632812 214.25 179.875 C 213.285156 178.117188 213.917969 175.914062 215.664062 174.957031 C 217.410156 173.996094 219.605469 174.644531 220.570312 176.402344 Z M 219.011719 177.261719 C 218.523438 176.371094 217.410156 176.042969 216.527344 176.527344 C 215.644531 177.011719 215.324219 178.128906 215.8125 179.015625 C 216.300781 179.90625 217.414062 180.234375 218.292969 179.75 C 219.175781 179.265625 219.496094 178.148438 219.011719 177.261719 Z M 219.011719 177.261719 " fill-opacity="1" fill-rule="nonzero"/></g></g></g><g clip-path="url(#7196966992)"><g clip-path="url(#d39b42423d)"><g clip-path="url(#137bdd9422)"><path fill="#532ccf" d="M 214.425781 164.265625 L 214.996094 166 L 210.234375 168.613281 L 208.671875 169.472656 L 202.625 172.789062 L 201.0625 173.648438 L 193.4375 177.835938 L 187.832031 171.046875 L 183.402344 165.675781 L 180.933594 162.683594 L 182.523438 161.808594 L 184.992188 164.804688 L 192.738281 160.550781 L 192.933594 160.863281 L 193.703125 162.070312 L 186.148438 166.214844 L 189.414062 170.179688 L 196.40625 166.339844 L 197.371094 167.859375 L 190.582031 171.585938 L 193.847656 175.558594 L 200.078125 172.140625 L 197.375 167.867188 L 196.410156 166.351562 L 193.707031 162.078125 L 192.941406 160.875 L 192.742188 160.558594 L 191.390625 158.425781 L 190.699219 157.335938 L 192.261719 156.476562 L 192.953125 157.566406 L 194.304688 159.703125 L 194.503906 160.015625 L 195.269531 161.21875 L 197.972656 165.492188 L 198.9375 167.011719 L 200.289062 169.148438 L 201.640625 171.28125 L 207.890625 167.851562 L 206.816406 165.566406 L 205.738281 163.277344 L 204.976562 161.648438 L 205.738281 163.277344 L 198.929688 167.015625 L 197.964844 165.496094 L 204.96875 161.65625 L 203.890625 159.367188 L 202.816406 157.078125 L 195.253906 161.230469 L 194.484375 160.027344 L 194.289062 159.714844 L 202.054688 155.449219 L 202.808594 157.070312 L 202.054688 155.449219 L 200.976562 153.164062 L 200.429688 151.992188 L 201.992188 151.136719 L 202.539062 152.304688 L 203.613281 154.59375 L 204.371094 156.214844 L 203.613281 154.59375 L 210.085938 151.042969 L 210.652344 152.777344 L 204.378906 156.222656 L 205.453125 158.507812 L 206.53125 160.796875 L 212.246094 157.660156 L 212.816406 159.394531 L 207.300781 162.421875 L 206.539062 160.792969 L 207.300781 162.421875 L 208.378906 164.707031 L 209.453125 166.996094 Z M 214.425781 164.265625 " fill-opacity="1" fill-rule="nonzero"/></g></g></g><g clip-path="url(#40bd65ecc4)"><g clip-path="url(#2ccba22f02)"><g clip-path="url(#9ed11923ea)"><path fill="#12baab" d="M 196.625 163.34375 L 197.976562 165.480469 L 198.941406 166.996094 L 200.292969 169.132812 L 198.941406 166.996094 L 197.976562 165.480469 Z M 201.652344 171.277344 L 200.300781 169.140625 Z M 195.0625 164.199219 L 193.710938 162.0625 L 192.945312 160.859375 L 193.710938 162.0625 Z M 196.625 163.34375 L 195.273438 161.207031 L 194.507812 160.003906 L 195.273438 161.207031 Z M 205.753906 163.257812 L 204.988281 161.628906 L 205.753906 163.257812 L 206.828125 165.546875 Z M 197.378906 167.855469 L 198.730469 169.988281 L 197.378906 167.855469 L 196.414062 166.335938 L 195.0625 164.199219 L 196.414062 166.335938 Z M 192.945312 160.859375 L 192.746094 160.546875 L 191.394531 158.410156 L 192.746094 160.546875 Z M 194.507812 160.003906 L 194.308594 159.6875 L 192.957031 157.550781 L 194.308594 159.6875 Z M 200.71875 148.355469 L 199.15625 149.214844 L 190.636719 153.890625 L 189.074219 154.746094 L 178.964844 160.292969 L 180.929688 162.671875 L 182.519531 161.800781 L 181.722656 160.828125 L 190.03125 156.269531 L 190.6875 157.316406 L 191.382812 158.40625 L 190.6875 157.316406 L 192.25 156.460938 L 192.945312 157.546875 L 192.25 156.460938 L 191.59375 155.410156 L 199.910156 150.847656 L 200.4375 151.964844 L 200.984375 153.136719 L 200.4375 151.964844 L 202 151.109375 L 202.546875 152.277344 L 202 151.109375 L 201.472656 149.988281 L 209.777344 145.429688 L 211.371094 150.3125 L 210.09375 151.015625 L 210.664062 152.75 L 211.941406 152.046875 L 213.53125 156.929688 L 212.253906 157.632812 L 212.824219 159.367188 L 214.101562 158.664062 L 215.699219 163.558594 L 214.421875 164.257812 L 214.988281 165.992188 L 217.855469 164.417969 L 215.128906 156.050781 L 212.976562 149.429688 L 210.828125 142.808594 C 210.828125 142.808594 200.71875 148.355469 200.71875 148.355469 Z M 202.832031 157.046875 L 202.074219 155.425781 L 201 153.140625 L 202.074219 155.425781 Z M 204.394531 156.1875 L 203.636719 154.570312 L 202.5625 152.28125 L 203.636719 154.570312 Z M 207.902344 167.847656 L 206.824219 165.5625 Z M 206.550781 160.773438 L 207.316406 162.402344 L 208.390625 164.6875 L 207.316406 162.402344 Z M 206.550781 160.773438 " fill-opacity="1" fill-rule="nonzero"/></g></g></g></svg>